<?xml version="1.0" encoding="UTF-8" standalone="no"?>
<svg
   viewBox="0 0 348 348"
   fill="none"
   version="1.1"
   id="svg197"
   sodipodi:docname="Password Mutilator EX.svg"
   inkscape:version="1.2.2 (732a01da63, 2022-12-09)"
   xmlns:inkscape="http://www.inkscape.org/namespaces/inkscape"
   xmlns:sodipodi="http://sodipodi.sourceforge.net/DTD/sodipodi-0.dtd"
   xmlns:xlink="http://www.w3.org/1999/xlink"
   xmlns="http://www.w3.org/2000/svg"
   xmlns:svg="http://www.w3.org/2000/svg"
   xmlns:rdf="http://www.w3.org/1999/02/22-rdf-syntax-ns#"
   xmlns:cc="http://creativecommons.org/ns#"
   xmlns:dc="http://purl.org/dc/elements/1.1/">
  <metadata
     id="metadata201">
    <rdf:RDF>
      <cc:Work
         rdf:about="">
        <dc:format>image/svg+xml</dc:format>
        <dc:type
           rdf:resource="http://purl.org/dc/dcmitype/StillImage" />
      </cc:Work>
    </rdf:RDF>
  </metadata>
  <sodipodi:namedview
     pagecolor="#ffffff"
     bordercolor="#666666"
     borderopacity="1"
     objecttolerance="10"
     gridtolerance="10"
     guidetolerance="10"
     inkscape:pageopacity="0"
     inkscape:pageshadow="2"
     inkscape:window-width="1920"
     inkscape:window-height="1017"
     id="namedview199"
     showgrid="false"
     showguides="true"
     inkscape:zoom="2.8284271"
     inkscape:cx="147.78532"
     inkscape:cy="205.41452"
     inkscape:window-x="-8"
     inkscape:window-y="-8"
     inkscape:window-maximized="1"
     inkscape:current-layer="svg197"
     inkscape:showpageshadow="2"
     inkscape:pagecheckerboard="0"
     inkscape:deskcolor="#d1d1d1" />
  <defs
     id="defs31">
    <linearGradient
       id="a">
      <stop
         offset="0"
         stop-color="#fff"
         id="stop2" />
      <stop
         offset="1"
         stop-color="#fff"
         stop-opacity="0"
         id="stop4" />
    </linearGradient>
    <linearGradient
       xlink:href="#a"
       id="b"
       x1="33.915"
       y1="191.326"
       x2="84.788"
       y2="191.326"
       gradientUnits="userSpaceOnUse"
       gradientTransform="matrix(.97561 0 0 .97561 -3.143 -28.567)" />
    <linearGradient
       gradientTransform="matrix(.95903 0 0 .97582 47.415 -28.607)"
       xlink:href="#a"
       id="c"
       x1="33.915"
       y1="191.326"
       x2="84.788"
       y2="191.326"
       gradientUnits="userSpaceOnUse" />
    <linearGradient
       gradientTransform="matrix(.95903 0 0 .97582 147.415 71.393)"
       xlink:href="#a"
       id="d"
       x1="33.915"
       y1="191.326"
       x2="84.788"
       y2="191.326"
       gradientUnits="userSpaceOnUse" />
    <linearGradient
       gradientTransform="matrix(.95903 0 0 .97582 147.415 -28.607)"
       xlink:href="#a"
       id="e"
       x1="33.915"
       y1="191.326"
       x2="84.788"
       y2="191.326"
       gradientUnits="userSpaceOnUse" />
    <linearGradient
       gradientTransform="matrix(.95903 0 0 .97582 197.415 -28.607)"
       xlink:href="#a"
       id="f"
       x1="33.915"
       y1="191.326"
       x2="84.788"
       y2="191.326"
       gradientUnits="userSpaceOnUse" />
    <linearGradient
       gradientTransform="matrix(.95903 0 0 .97582 247.415 -28.607)"
       xlink:href="#a"
       id="g"
       x1="33.915"
       y1="191.326"
       x2="84.788"
       y2="191.326"
       gradientUnits="userSpaceOnUse" />
    <linearGradient
       gradientTransform="matrix(0.95903,0,0,0.97582,-2.585,20.871659)"
       xlink:href="#a"
       id="h"
       x1="33.915"
       y1="191.326"
       x2="84.788"
       y2="191.326"
       gradientUnits="userSpaceOnUse" />
    <linearGradient
       gradientTransform="matrix(.95903 0 0 .97582 -2.585 71.393)"
       xlink:href="#a"
       id="i"
       x1="33.915"
       y1="191.326"
       x2="84.788"
       y2="191.326"
       gradientUnits="userSpaceOnUse" />
    <linearGradient
       gradientTransform="matrix(.95903 0 0 .97582 47.415 21.393)"
       xlink:href="#a"
       id="j"
       x1="33.915"
       y1="191.326"
       x2="84.788"
       y2="191.326"
       gradientUnits="userSpaceOnUse" />
    <linearGradient
       gradientTransform="matrix(.95903 0 0 .97582 47.415 121.393)"
       xlink:href="#a"
       id="k"
       x1="33.915"
       y1="191.326"
       x2="84.788"
       y2="191.326"
       gradientUnits="userSpaceOnUse" />
    <linearGradient
       gradientTransform="matrix(.95903 0 0 .97582 197.415 71.393)"
       xlink:href="#a"
       id="l"
       x1="33.915"
       y1="191.326"
       x2="84.788"
       y2="191.326"
       gradientUnits="userSpaceOnUse" />
    <linearGradient
       gradientTransform="matrix(.95903 0 0 .97582 147.415 21.393)"
       xlink:href="#a"
       id="m"
       x1="33.915"
       y1="191.326"
       x2="84.788"
       y2="191.326"
       gradientUnits="userSpaceOnUse" />
    <linearGradient
       gradientTransform="matrix(.95903 0 0 .97582 247.415 71.393)"
       xlink:href="#a"
       id="n"
       x1="33.915"
       y1="191.326"
       x2="84.788"
       y2="191.326"
       gradientUnits="userSpaceOnUse" />
    <linearGradient
       gradientTransform="matrix(.95903 0 0 .97582 97.414 -28.607)"
       xlink:href="#a"
       id="o"
       x1="33.915"
       y1="191.326"
       x2="84.788"
       y2="191.326"
       gradientUnits="userSpaceOnUse" />
    <linearGradient
       gradientTransform="matrix(.95903 0 0 .97582 147.415 121.393)"
       xlink:href="#a"
       id="p"
       x1="33.915"
       y1="191.326"
       x2="84.788"
       y2="191.326"
       gradientUnits="userSpaceOnUse" />
    <linearGradient
       gradientTransform="matrix(.95903 0 0 .97582 247.415 121.393)"
       xlink:href="#a"
       id="q"
       x1="33.915"
       y1="191.326"
       x2="84.788"
       y2="191.326"
       gradientUnits="userSpaceOnUse" />
    <linearGradient
       gradientTransform="matrix(.95903 0 0 .97582 197.415 121.393)"
       xlink:href="#a"
       id="r"
       x1="33.915"
       y1="191.326"
       x2="84.788"
       y2="191.326"
       gradientUnits="userSpaceOnUse" />
    <linearGradient
       gradientTransform="matrix(.95903 0 0 .97582 47.415 71.393)"
       xlink:href="#a"
       id="s"
       x1="33.915"
       y1="191.326"
       x2="84.788"
       y2="191.326"
       gradientUnits="userSpaceOnUse" />
    <linearGradient
       gradientTransform="matrix(.95903 0 0 .97582 -2.585 121.393)"
       xlink:href="#a"
       id="t"
       x1="33.915"
       y1="191.326"
       x2="84.788"
       y2="191.326"
       gradientUnits="userSpaceOnUse" />
    <linearGradient
       gradientTransform="matrix(.95903 0 0 .97582 197.415 21.393)"
       xlink:href="#a"
       id="u"
       x1="33.915"
       y1="191.326"
       x2="84.788"
       y2="191.326"
       gradientUnits="userSpaceOnUse" />
    <linearGradient
       gradientTransform="matrix(1.7940415,0,0,0.53299449,185.36413,72.787964)"
       xlink:href="#a"
       id="v"
       x1="33.915"
       y1="191.326"
       x2="84.788"
       y2="191.326"
       gradientUnits="userSpaceOnUse" />
    <linearGradient
       gradientTransform="matrix(.95903 0 0 .97582 97.415 71.393)"
       xlink:href="#a"
       id="w"
       x1="33.915"
       y1="191.326"
       x2="84.788"
       y2="191.326"
       gradientUnits="userSpaceOnUse" />
    <linearGradient
       gradientTransform="matrix(.95903 0 0 .97582 97.415 121.393)"
       xlink:href="#a"
       id="x"
       x1="33.915"
       y1="191.326"
       x2="84.788"
       y2="191.326"
       gradientUnits="userSpaceOnUse" />
    <linearGradient
       gradientTransform="matrix(.95903 0 0 .97582 97.415 21.393)"
       xlink:href="#a"
       id="y"
       x1="33.915"
       y1="191.326"
       x2="84.788"
       y2="191.326"
       gradientUnits="userSpaceOnUse" />
  </defs>
  <path
     d="M5.079 5.776h336.913v337.67H5.08z"
     stroke-width="2"
     stroke="#000"
     id="path33" />
  <path
     fill="#000000"
     d="M 24.36761,27.551001 H 320.05968 V 156.54238 H 24.36761 Z"
     id="path37"
     style="stroke-width:1.13376" />
  <path
     fill="url(#v)"
     stroke="#000000"
     stroke-width="0.680113"
     d="m 246.21001,164.34939 h 73.01837 v 21.31989 h -73.01837 z"
     id="path79"
     style="fill:url(#v)" />
  <path
     inkscape:connector-curvature="0"
     style="fill:#000000;stroke-width:0.461533"
     d="M 27.309216,289.027 H 167.30922 v 35 H 27.309216 Z"
     id="path37-7-2" />
  <path
     inkscape:connector-curvature="0"
     style="fill:#000000;stroke-width:0.466854"
     d="m 177.05606,288.62935 h 143.24762 v 35 H 177.05606 Z"
     id="path37-7-2-3" />
  <path
     d="m 43.931679,224.76452 a 10.839192,10.839192 0 0 1 -10.812185,10.8392 10.839192,10.839192 0 0 1 -10.866201,-10.78596 10.839192,10.839192 0 0 1 10.758943,-10.89244 10.839192,10.839192 0 0 1 10.918671,10.73271"
     fill="#ffffff"
     stroke="#000000"
     stroke-width="1.23"
     id="path1930" />
  <path
     d="m 39.061875,231.89137 q -0.482275,0.12115 -0.956831,0.16976 -0.466069,0.0556 -0.956832,0.0556 -1.398206,0 -2.250094,-0.77166 -0.844171,-0.76389 -0.916705,-2.19452 -0.19291,0.0324 -0.378102,0.0402 -0.175933,0.0161 -0.344923,0.0161 -1.261626,0 -2.299478,-0.41823 -1.028595,-0.41745 -1.751618,-1.213 -0.723797,-0.79634 -1.117331,-1.95379 -0.385819,-1.15745 -0.385819,-2.6444 0,-1.46303 0.385819,-2.62048 0.38582,-1.16517 1.125047,-1.99314 0.707593,-0.78709 1.752388,-1.20531 1.053288,-0.4182 2.290992,-0.4182 1.286321,0 2.307197,0.42592 1.028593,0.41823 1.743901,1.19759 0.731512,0.80403 1.117331,1.96922 0.393534,1.16517 0.393534,2.6444 0,2.19454 -0.899729,3.69769 -0.892783,1.50315 -2.40365,2.1058 0.03242,0.9167 0.43443,1.42289 0.401253,0.5062 1.462256,0.5062 0.329488,0 0.779353,-0.10417 0.459124,-0.0965 0.652033,-0.17748 h 0.216059 z m -1.897456,-8.91396 q 0,-2.33033 -1.044799,-3.59273 -1.044797,-1.27013 -2.853515,-1.27013 -1.824151,0 -2.868947,1.27013 -1.037081,1.26161 -1.037081,3.59273 0,2.35504 1.061001,3.60894 1.061003,1.24621 2.845027,1.24621 1.784797,0 2.837312,-1.24621 1.061002,-1.2539 1.061002,-3.60894 z"
     aria-label="Q"
     font-weight="400"
     font-size="21.333px"
     font-family="sans-serif"
     letter-spacing="0"
     word-spacing="0"
     fill="#000000"
     id="path1932"
     style="stroke-width:0.771637" />
  <path
     d="m 69.182744,224.76452 a 10.839192,10.839192 0 0 1 -10.812956,10.8392 10.839192,10.839192 0 0 1 -10.8662,-10.78596 10.839192,10.839192 0 0 1 10.759714,-10.89244 10.839192,10.839192 0 0 1 10.91867,10.73271"
     fill="#ffffff"
     stroke="#000000"
     stroke-width="1.23"
     id="path1934" />
  <path
     d="m 65.779823,217.96022 -3.111242,11.96811 h -1.792513 l -2.51554,-9.93407 -2.45998,9.93484 H 54.14893 l -3.16757,-11.96811 h 1.632011 l 2.515539,9.95027 2.476185,-9.95104 h 1.615037 l 2.500105,10.04749 2.500107,-10.04672 z"
     aria-label="W"
     font-weight="400"
     font-size="21.333px"
     font-family="sans-serif"
     letter-spacing="0"
     word-spacing="0"
     fill="#000000"
     id="path1936"
     style="stroke-width:0.771637" />
  <path
     d="M 93.947682,224.76452 A 10.839192,10.839192 0 0 1 83.133951,235.60294 10.839192,10.839192 0 0 1 72.267752,224.81699 10.839192,10.839192 0 0 1 83.027464,213.92455 10.839192,10.839192 0 0 1 93.946143,224.65727"
     fill="#ffffff"
     stroke="#000000"
     stroke-width="1.23"
     id="path1938" />
  <g
     style="line-height:1.25"
     id="g1942"
     transform="matrix(0.7716375,0,0,0.77163746,11.726616,55.294404)">
    <path
       d="M 97.456,226.317 H 87.237 v -15.51 h 10.219 v 1.833 H 89.3 v 4.25 h 8.156 v 1.833 H 89.3 v 5.76 h 8.156 z"
       aria-label="E"
       font-weight="400"
       font-size="21.333px"
       font-family="sans-serif"
       letter-spacing="0"
       word-spacing="0"
       fill="#000000"
       id="path1940" />
  </g>
  <path
     d="m 118.71261,224.76452 a 10.839192,10.839192 0 0 1 -10.81295,10.8392 10.839192,10.839192 0 0 1 -10.866206,-10.78596 10.839192,10.839192 0 0 1 10.759726,-10.89244 10.839192,10.839192 0 0 1 10.91866,10.73271"
     fill="#ffffff"
     stroke="#000000"
     stroke-width="1.23"
     id="path1944" />
  <path
     d="m 113.71009,229.9291 h -2.06567 l -4.00249,-4.7587 h -2.24314 v 4.7587 h -1.59113 v -11.96811 h 3.352 q 1.08493,0 1.80795,0.14429 0.72379,0.13659 1.30252,0.49849 0.65126,0.40973 1.01239,1.03707 0.37038,0.61887 0.37038,1.57492 0,1.29404 -0.65126,2.17062 -0.65125,0.86809 -1.79252,1.31024 z m -3.7216,-8.60068 q 0,-0.51468 -0.1852,-0.90821 -0.17671,-0.40126 -0.59417,-0.67519 -0.34569,-0.23304 -0.82025,-0.32177 -0.47377,-0.0965 -1.11733,-0.0965 h -1.87275 v 4.51718 h 1.60808 q 0.75544,0 1.31796,-0.12808 0.5633,-0.1366 0.95682,-0.49848 0.36114,-0.33799 0.53012,-0.77165 0.17747,-0.44214 0.17747,-1.11733 z"
     aria-label="R"
     font-weight="400"
     font-size="21.333px"
     font-family="sans-serif"
     letter-spacing="0"
     word-spacing="0"
     fill="#000000"
     id="path1946"
     style="stroke-width:0.771637" />
  <path
     d="m 143.96291,224.76452 a 10.839192,10.839192 0 0 1 -10.81297,10.8392 10.839192,10.839192 0 0 1 -10.86542,-10.78596 10.839192,10.839192 0 0 1 10.75895,-10.89244 10.839192,10.839192 0 0 1 10.91867,10.73271"
     fill="#ffffff"
     stroke="#000000"
     stroke-width="1.23"
     id="path1948" />
  <path
     d="m 138.31144,219.3754 h -4.27642 v 10.5537 h -1.5919 v -10.5537 h -4.27563 v -1.41518 h 10.14395 z"
     aria-label="T"
     font-weight="400"
     font-size="21.333px"
     font-family="sans-serif"
     letter-spacing="0"
     word-spacing="0"
     fill="#000000"
     id="path1950"
     style="stroke-width:0.771637" />
  <path
     d="m 169.2132,224.76452 a 10.839192,10.839192 0 0 1 -10.81219,10.8392 10.839192,10.839192 0 0 1 -10.86619,-10.78596 10.839192,10.839192 0 0 1 10.75894,-10.89244 10.839192,10.839192 0 0 1 10.91867,10.73271"
     fill="#ffffff"
     stroke="#000000"
     stroke-width="1.23"
     id="path1952" />
  <path
     d="m 163.59799,218.06053 -4.21236,6.71943 v 5.24868 h -1.59113 v -5.0797 l -4.22857,-6.88841 h 1.76089 l 3.27173,5.35285 3.30261,-5.35285 z"
     aria-label="Y"
     font-weight="400"
     font-size="21.333px"
     font-family="sans-serif"
     letter-spacing="0"
     word-spacing="0"
     fill="#000000"
     id="path1954"
     style="stroke-width:0.771637" />
  <path
     d="m 194.46427,224.76452 a 10.839192,10.839192 0 0 1 -10.81295,10.8392 10.839192,10.839192 0 0 1 -10.8662,-10.78596 10.839192,10.839192 0 0 1 10.75971,-10.89244 10.839192,10.839192 0 0 1 10.91866,10.73271"
     fill="#ffffff"
     stroke="#000000"
     stroke-width="1.23"
     id="path1956" />
  <path
     d="m 188.08437,225.12256 q 0,1.30175 -0.28937,2.27478 -0.28164,0.96455 -0.93291,1.60733 -0.61884,0.61114 -1.44682,0.89201 -0.82796,0.28166 -1.92909,0.28166 -1.12504,0 -1.96072,-0.29786 -0.83647,-0.29709 -1.40671,-0.87581 -0.65126,-0.65898 -0.9414,-1.59189 -0.28087,-0.93214 -0.28087,-2.29022 v -7.16234 h 1.59189 v 7.24259 q 0,0.97225 0.12886,1.53556 0.13657,0.56253 0.44987,1.02009 0.35341,0.52241 0.95682,0.78786 0.61038,0.26545 1.46226,0.26545 0.86037,0 1.46303,-0.25696 0.60264,-0.26545 0.96454,-0.79635 0.31328,-0.45756 0.44214,-1.04478 0.13659,-0.59417 0.13659,-1.47075 v -7.28271 h 1.59189 z"
     aria-label="U"
     font-weight="400"
     font-size="21.333px"
     font-family="sans-serif"
     letter-spacing="0"
     word-spacing="0"
     fill="#000000"
     id="path1958"
     style="stroke-width:0.771637" />
  <path
     d="m 219.2292,224.76452 a 10.839192,10.839192 0 0 1 -10.81296,10.8392 10.839192,10.839192 0 0 1 -10.8662,-10.78596 10.839192,10.839192 0 0 1 10.75971,-10.89244 10.839192,10.839192 0 0 1 10.91868,10.73271"
     fill="#ffffff"
     stroke="#000000"
     stroke-width="1.23"
     id="path1960" />
  <path
     d="m 210.97191,229.9291 h -4.72629 v -1.22152 h 1.56721 v -9.52508 h -1.56644 v -1.22228 h 4.72552 v 1.22228 h -1.5672 v 9.52508 h 1.5672 z"
     aria-label="I"
     font-weight="400"
     font-size="21.333px"
     font-family="sans-serif"
     letter-spacing="0"
     word-spacing="0"
     fill="#000000"
     id="path1962"
     style="stroke-width:0.771637" />
  <path
     d="m 243.99414,224.76452 a 10.839192,10.839192 0 0 1 -10.81296,10.8392 10.839192,10.839192 0 0 1 -10.86619,-10.78596 10.839192,10.839192 0 0 1 10.7597,-10.89244 10.839192,10.839192 0 0 1 10.91868,10.73271"
     fill="#ffffff"
     stroke="#000000"
     stroke-width="1.23"
     id="path1964" />
  <path
     d="m 237.04013,219.33528 q 0.73151,0.80327 1.11732,1.96922 0.39355,1.16516 0.39355,2.6444 0,1.47921 -0.40125,2.65212 -0.3943,1.16517 -1.10962,1.9453 -0.73999,0.81176 -1.75239,1.22227 -1.00467,0.40897 -2.29947,0.40897 -1.26162,0 -2.29794,-0.41668 -1.02936,-0.419 -1.75238,-1.21456 -0.72381,-0.79557 -1.11734,-1.95302 -0.38582,-1.15746 -0.38582,-2.6444 0,-1.46303 0.38582,-2.62048 0.38582,-1.16519 1.12504,-1.99314 0.7076,-0.78784 1.75239,-1.20607 1.05329,-0.41746 2.291,-0.41746 1.28554,0 2.3072,0.42595 1.02858,0.41746 1.74389,1.19758 z m -0.14507,4.61362 q 0,-2.33112 -1.04479,-3.59274 -1.04479,-1.27012 -2.8535,-1.27012 -1.82416,0 -2.86972,1.27012 -1.03633,1.26162 -1.03633,3.59274 0,2.35503 1.06101,3.60894 1.06101,1.24621 2.84504,1.24621 1.78479,0 2.8373,-1.24621 1.06099,-1.25391 1.06099,-3.60894 z"
     aria-label="O"
     font-weight="400"
     font-size="21.333px"
     font-family="sans-serif"
     letter-spacing="0"
     word-spacing="0"
     fill="#000000"
     id="path1966"
     style="stroke-width:0.771637" />
  <path
     d="m 269.24442,224.76452 a 10.839192,10.839192 0 0 1 -10.81295,10.8392 10.839192,10.839192 0 0 1 -10.86542,-10.78596 10.839192,10.839192 0 0 1 10.75894,-10.89244 10.839192,10.839192 0 0 1 10.91866,10.73271"
     fill="#ffffff"
     stroke="#000000"
     stroke-width="1.23"
     id="path1968" />
  <path
     d="m 294.71863,224.64884 a 10.839192,10.839192 0 0 1 -10.81294,10.8392 10.839192,10.839192 0 0 1 -10.86543,-10.78596 10.839192,10.839192 0 0 1 10.75894,-10.89243 10.839192,10.839192 0 0 1 10.91866,10.73271"
     fill="#ffffff"
     stroke="#000000"
     stroke-width="1.23"
     id="path1968-9" />
  <path
     d="m 319.23757,224.64884 a 10.839192,10.839192 0 0 1 -10.81295,10.8392 10.839192,10.839192 0 0 1 -10.86543,-10.78596 10.839192,10.839192 0 0 1 10.75894,-10.89243 10.839192,10.839192 0 0 1 10.91867,10.73271"
     fill="#ffffff"
     stroke="#000000"
     stroke-width="1.23"
     id="path1968-9-0" />
  <path
     d="m 282.1296,247.172 a 10.839192,10.839192 0 0 1 -10.81294,10.8392 10.839192,10.839192 0 0 1 -10.86543,-10.78596 10.839192,10.839192 0 0 1 10.75894,-10.89243 10.839192,10.839192 0 0 1 10.91866,10.73271"
     fill="#ffffff"
     stroke="#000000"
     stroke-width="1.23"
     id="path1968-9-8" />
  <path
     d="m 306.64854,247.172 a 10.839192,10.839192 0 0 1 -10.81295,10.8392 10.839192,10.839192 0 0 1 -10.86543,-10.78596 10.839192,10.839192 0 0 1 10.75894,-10.89243 10.839192,10.839192 0 0 1 10.91867,10.73271"
     fill="#ffffff"
     stroke="#000000"
     stroke-width="1.23"
     id="path1968-9-0-6" />
  <path
     d="m 268.69458,270.86009 a 10.839192,10.839192 0 0 1 -10.81294,10.8392 10.839192,10.839192 0 0 1 -10.86543,-10.78596 10.839192,10.839192 0 0 1 10.75894,-10.89243 10.839192,10.839192 0 0 1 10.91866,10.73271"
     fill="#ffffff"
     stroke="#000000"
     stroke-width="1.23"
     id="path1968-9-5" />
  <path
     d="m 244.53804,270.86008 a 10.839192,10.839192 0 0 1 -10.81294,10.8392 10.839192,10.839192 0 0 1 -10.86543,-10.78596 10.839192,10.839192 0 0 1 10.75894,-10.89243 10.839192,10.839192 0 0 1 10.91866,10.73271"
     fill="#ffffff"
     stroke="#000000"
     stroke-width="1.23"
     id="path1968-9-5-2" />
  <path
     d="m 293.21352,270.86009 a 10.839192,10.839192 0 0 1 -10.81295,10.8392 10.839192,10.839192 0 0 1 -10.86543,-10.78596 10.839192,10.839192 0 0 1 10.75894,-10.89243 10.839192,10.839192 0 0 1 10.91867,10.73271"
     fill="#ffffff"
     stroke="#000000"
     stroke-width="1.23"
     id="path1968-9-0-1" />
  <path
     d="m 262.88537,221.57766 q 0,0.79556 -0.28165,1.47923 -0.27317,0.67518 -0.77163,1.17289 -0.61886,0.61962 -1.46226,0.93291 -0.84417,0.30556 -2.12972,0.30556 h -1.59189 v 4.46008 h -1.59189 v -11.96811 h 3.24705 q 1.07721,0 1.82493,0.1852 0.74771,0.17748 1.32644,0.56328 0.68288,0.45759 1.05251,1.14048 0.37811,0.68367 0.37811,1.72848 z m -1.65595,0.0401 q 0,-0.61885 -0.21682,-1.0772 -0.21683,-0.45836 -0.65899,-0.74772 -0.38582,-0.24846 -0.88429,-0.3534 -0.49076,-0.11268 -1.24618,-0.11268 h -1.57492 v 4.78262 h 1.34264 q 0.96456,0 1.56643,-0.16899 0.60343,-0.1767 0.98075,-0.55403 0.3781,-0.38582 0.53089,-0.81177 0.16049,-0.42593 0.16049,-0.95683 z"
     aria-label="P"
     font-weight="400"
     font-size="21.333px"
     font-family="sans-serif"
     letter-spacing="0"
     word-spacing="0"
     fill="#000000"
     id="path1970"
     style="stroke-width:0.771637" />
  <path
     d="m 43.599047,199.18821 a 10.839192,10.839192 0 0 1 -10.81219,10.8392 10.839192,10.839192 0 0 1 -10.8662,-10.78596 10.839192,10.839192 0 0 1 10.75895,-10.89244 10.839192,10.839192 0 0 1 10.91867,10.73271"
     fill="#ffffff"
     stroke="#000000"
     stroke-width="1.23"
     id="path1930-3" />
  <path
     d="m 68.850107,199.18821 a 10.839192,10.839192 0 0 1 -10.81295,10.8392 10.839192,10.839192 0 0 1 -10.8662,-10.78596 10.839192,10.839192 0 0 1 10.75971,-10.89244 10.839192,10.839192 0 0 1 10.91867,10.73271"
     fill="#ffffff"
     stroke="#000000"
     stroke-width="1.23"
     id="path1934-7" />
  <path
     d="m 93.615047,199.18821 a 10.839192,10.839192 0 0 1 -10.81373,10.83842 10.839192,10.839192 0 0 1 -10.8662,-10.78595 10.839192,10.839192 0 0 1 10.75971,-10.89244 10.839192,10.839192 0 0 1 10.91868,10.73272"
     fill="#ffffff"
     stroke="#000000"
     stroke-width="1.23"
     id="path1938-4" />
  <path
     d="m 93.925079,173.67532 a 10.839192,10.839192 0 0 1 -10.81373,10.83842 10.839192,10.839192 0 0 1 -10.8662,-10.78595 10.839192,10.839192 0 0 1 10.75971,-10.89244 10.839192,10.839192 0 0 1 10.91868,10.73272"
     fill="#ffffff"
     stroke="#000000"
     stroke-width="1.23"
     id="path1938-4-0" />
  <path
     d="m 43.720497,174.02887 a 10.839192,10.839192 0 0 1 -10.81373,10.83842 10.839192,10.839192 0 0 1 -10.8662,-10.78595 10.839192,10.839192 0 0 1 10.75971,-10.89244 10.839192,10.839192 0 0 1 10.91868,10.73272"
     fill="#ffffff"
     stroke="#000000"
     stroke-width="1.23"
     id="path1938-4-0-6" />
  <path
     d="m 118.37998,199.18821 a 10.839192,10.839192 0 0 1 -10.81295,10.8392 10.839192,10.839192 0 0 1 -10.866213,-10.78596 10.839192,10.839192 0 0 1 10.759733,-10.89244 10.839192,10.839192 0 0 1 10.91866,10.73271"
     fill="#ffffff"
     stroke="#000000"
     stroke-width="1.23"
     id="path1944-5" />
  <path
     d="m 143.63028,199.18821 a 10.839192,10.839192 0 0 1 -10.81297,10.8392 10.839192,10.839192 0 0 1 -10.86542,-10.78596 10.839192,10.839192 0 0 1 10.75895,-10.89244 10.839192,10.839192 0 0 1 10.91867,10.73271"
     fill="#ffffff"
     stroke="#000000"
     stroke-width="1.23"
     id="path1948-9" />
  <path
     d="m 168.88057,199.18821 a 10.839192,10.839192 0 0 1 -10.81219,10.8392 10.839192,10.839192 0 0 1 -10.86619,-10.78596 10.839192,10.839192 0 0 1 10.75894,-10.89244 10.839192,10.839192 0 0 1 10.91867,10.73271"
     fill="#ffffff"
     stroke="#000000"
     stroke-width="1.23"
     id="path1952-8" />
  <path
     d="m 194.13164,199.18821 a 10.839192,10.839192 0 0 1 -10.81295,10.8392 10.839192,10.839192 0 0 1 -10.8662,-10.78596 10.839192,10.839192 0 0 1 10.75971,-10.89244 10.839192,10.839192 0 0 1 10.91866,10.73271"
     fill="#ffffff"
     stroke="#000000"
     stroke-width="1.23"
     id="path1956-4" />
  <path
     d="m 218.89657,199.18821 a 10.839192,10.839192 0 0 1 -10.81296,10.8392 10.839192,10.839192 0 0 1 -10.8662,-10.78596 10.839192,10.839192 0 0 1 10.75971,-10.89244 10.839192,10.839192 0 0 1 10.91868,10.73271"
     fill="#ffffff"
     stroke="#000000"
     stroke-width="1.23"
     id="path1960-9" />
  <path
     d="m 243.66151,199.18821 a 10.839192,10.839192 0 0 1 -10.81296,10.8392 10.839192,10.839192 0 0 1 -10.86619,-10.78596 10.839192,10.839192 0 0 1 10.7597,-10.89244 10.839192,10.839192 0 0 1 10.91868,10.73271"
     fill="#ffffff"
     stroke="#000000"
     stroke-width="1.23"
     id="path1964-1" />
  <path
     d="m 268.91179,199.18821 a 10.839192,10.839192 0 0 1 -10.81295,10.8392 10.839192,10.839192 0 0 1 -10.86542,-10.78596 10.839192,10.839192 0 0 1 10.75894,-10.89244 10.839192,10.839192 0 0 1 10.91866,10.73271"
     fill="#ffffff"
     stroke="#000000"
     stroke-width="1.23"
     id="path1968-4" />
  <path
     d="m 294.386,199.07253 a 10.839192,10.839192 0 0 1 -10.81294,10.8392 10.839192,10.839192 0 0 1 -10.86543,-10.78596 10.839192,10.839192 0 0 1 10.75894,-10.89243 10.839192,10.839192 0 0 1 10.91866,10.73271"
     fill="#ffffff"
     stroke="#000000"
     stroke-width="1.23"
     id="path1968-9-3" />
  <path
     d="m 318.90494,199.07253 a 10.839192,10.839192 0 0 1 -10.81295,10.8392 10.839192,10.839192 0 0 1 -10.86543,-10.78596 10.839192,10.839192 0 0 1 10.75894,-10.89243 10.839192,10.839192 0 0 1 10.91867,10.73271"
     fill="#ffffff"
     stroke="#000000"
     stroke-width="1.23"
     id="path1968-9-0-12" />
  <path
     d="M 56.557212,248.0726 A 10.839192,10.839192 0 0 1 45.744254,258.9118 10.839192,10.839192 0 0 1 34.878827,248.12661 10.839192,10.839192 0 0 1 45.637769,237.23418 10.839192,10.839192 0 0 1 56.55644,247.9669"
     fill="#ffffff"
     stroke="#000000"
     stroke-width="1.23"
     id="path1972" />
  <path
     d="m 51.166552,252.75181 h -1.696059 l -1.173662,-3.3358 h -5.176143 l -1.173662,3.3358 h -1.615808 l 4.356668,-11.96809 h 2.122001 z m -3.359708,-4.70235 -2.098856,-5.87603 -2.105026,5.87603 z"
     aria-label="A"
     font-weight="400"
     font-size="21.333px"
     font-family="sans-serif"
     letter-spacing="0"
     word-spacing="0"
     fill="#000000"
     id="path1974"
     style="stroke-width:0.771637" />
  <path
     d="m 81.807504,248.0726 a 10.839192,10.839192 0 0 1 -10.812182,10.8392 10.839192,10.839192 0 0 1 -10.8662,-10.78519 10.839192,10.839192 0 0 1 10.758942,-10.89243 10.839192,10.839192 0 0 1 10.918669,10.73272"
     fill="#ffffff"
     stroke="#000000"
     stroke-width="1.23"
     id="path1976" />
  <path
     d="m 75.114321,249.82113 q 0,0.69911 -0.329489,1.38277 -0.321772,0.6829 -0.908216,1.15747 -0.643546,0.51391 -1.50315,0.80327 -0.851888,0.28936 -2.057958,0.28936 -1.294036,0 -2.330345,-0.24075 -1.029365,-0.24153 -2.098855,-0.71531 v -1.99391 h 0.11266 q 0.908989,0.75621 2.098855,1.16519 1.188322,0.4105 2.23389,0.4105 1.479229,0 2.299479,-0.55482 0.826425,-0.55403 0.826425,-1.47844 0,-0.79634 -0.393536,-1.17368 -0.385818,-0.37809 -1.182149,-0.58643 -0.601877,-0.16128 -1.309469,-0.26545 -0.699876,-0.10495 -1.487716,-0.26544 -1.591117,-0.33798 -2.362754,-1.14976 -0.763922,-0.81946 -0.763922,-2.1297 0,-1.50315 1.270115,-2.45998 1.270117,-0.96454 3.223132,-0.96454 1.262398,0 2.314912,0.24151 1.053285,0.24077 1.865048,0.59416 v 1.88125 h -0.112661 q -0.6829,-0.57871 -1.80023,-0.95681 -1.109615,-0.38583 -2.274788,-0.38583 -1.27783,0 -2.057957,0.53089 -0.771636,0.5309 -0.771636,1.36581 0,0.74849 0.385818,1.17443 0.385818,0.42594 1.358082,0.65126 0.514681,0.11188 1.463024,0.27315 0.949115,0.16051 1.608094,0.32949 1.334161,0.3534 2.009343,1.06872 0.675183,0.7153 0.675183,2.00162 z"
     aria-label="S"
     font-weight="400"
     font-size="21.333px"
     font-family="sans-serif"
     letter-spacing="0"
     word-spacing="0"
     fill="#000000"
     id="path1978"
     style="stroke-width:0.771637" />
  <path
     d="M 106.57244,248.0726 A 10.839192,10.839192 0 0 1 95.760257,258.9118 10.839192,10.839192 0 0 1 84.893284,248.12661 10.839192,10.839192 0 0 1 95.652227,237.23418 10.839192,10.839192 0 0 1 106.5709,247.9669"
     fill="#ffffff"
     stroke="#000000"
     stroke-width="1.23"
     id="path1980" />
  <path
     d="m 101.29366,247.01083 q 0,1.63201 -0.7153,2.95846 -0.70682,1.32567 -1.88897,2.05718 -0.819481,0.50696 -1.832647,0.73151 -1.004668,0.22532 -2.652108,0.22532 h -3.022507 v -11.96809 h 2.990104 q 1.752381,0 2.780972,0.25696 1.03708,0.24924 1.752396,0.69138 1.22227,0.76392 1.90517,2.03326 0.68289,1.27013 0.68289,3.01402 z m -1.66364,-0.0232 q 0,-1.40748 -0.49,-2.37203 -0.49075,-0.96454 -1.463017,-1.51857 -0.707597,-0.40204 -1.50315,-0.5556 -0.795551,-0.16049 -1.905179,-0.16049 h -1.494657 v 9.23649 h 1.494657 q 1.149745,0 2.001624,-0.16977 0.860386,-0.16821 1.575688,-0.62656 0.892014,-0.571 1.334164,-1.50315 0.44987,-0.93212 0.44987,-2.33033 z"
     aria-label="D"
     font-weight="400"
     font-size="21.333px"
     font-family="sans-serif"
     letter-spacing="0"
     word-spacing="0"
     fill="#000000"
     id="path1982"
     style="stroke-width:0.771637" />
  <path
     d="m 131.33815,248.0726 a 10.839192,10.839192 0 0 1 -10.81297,10.8392 10.839192,10.839192 0 0 1 -10.8662,-10.78596 10.839192,10.839192 0 0 1 10.75895,-10.89243 10.839192,10.839192 0 0 1 10.91868,10.73271"
     fill="#ffffff"
     stroke="#000000"
     stroke-width="1.23"
     id="path1984" />
  <path
     d="m 124.07705,242.68349 h -6.05272 v 3.37592 h 5.20081 v 1.4144 h -5.20081 v 5.76336 h -1.5919 v -11.9681 h 7.64462 z"
     aria-label="F"
     font-weight="400"
     font-size="21.333px"
     font-family="sans-serif"
     letter-spacing="0"
     word-spacing="0"
     fill="#000000"
     id="path1986"
     style="stroke-width:0.771637" />
  <path
     d="m 156.58844,248.0726 a 10.839192,10.839192 0 0 1 -10.81296,10.8392 10.839192,10.839192 0 0 1 -10.86619,-10.78596 10.839192,10.839192 0 0 1 10.75971,-10.89243 10.839192,10.839192 0 0 1 10.91867,10.73271"
     fill="#ffffff"
     stroke="#000000"
     stroke-width="1.23"
     id="path1988" />
  <path
     d="m 150.4408,252.35289 q -0.97997,0.45062 -2.14592,0.78783 -1.15746,0.32948 -2.24238,0.32948 -1.39899,0 -2.56415,-0.38581 -1.16517,-0.38582 -1.98543,-1.15745 -0.82796,-0.77937 -1.2786,-1.94453 -0.44986,-1.17443 -0.44986,-2.74164 0,-2.86972 1.67214,-4.52488 1.67985,-1.66441 4.6059,-1.66441 1.02011,0 2.0811,0.24923 1.06951,0.24153 2.29949,0.82797 v 1.88896 h -0.14507 q -0.24924,-0.19289 -0.72302,-0.50618 -0.47456,-0.31328 -0.93292,-0.5224 -0.55404,-0.24924 -1.26162,-0.40975 -0.69912,-0.16975 -1.59189,-0.16975 -2.00934,0 -3.183,1.2948 -1.16518,1.28632 -1.16518,3.48781 0,2.32339 1.22151,3.61743 1.22226,1.28633 3.32808,1.28633 0.77162,0 1.53554,-0.1528 0.77165,-0.15278 1.35036,-0.39352 v -2.93456 h -3.20768 v -1.39819 h 4.7826 z"
     aria-label="G"
     font-weight="400"
     font-size="21.333px"
     font-family="sans-serif"
     letter-spacing="0"
     word-spacing="0"
     fill="#000000"
     id="path1990"
     style="stroke-width:0.771637" />
  <path
     d="m 181.83874,248.0726 a 10.839192,10.839192 0 0 1 -10.81297,10.8392 10.839192,10.839192 0 0 1 -10.86543,-10.78596 10.839192,10.839192 0 0 1 10.75895,-10.89243 10.839192,10.839192 0 0 1 10.91868,10.73271"
     fill="#ffffff"
     stroke="#000000"
     stroke-width="1.23"
     id="path1992" />
  <path
     d="m 175.44958,253.33672 h -1.59189 v -5.85982 h -5.97247 v 5.85982 h -1.59113 v -11.9681 h 1.5919 v 4.69387 h 5.97247 v -4.69387 h 1.59112 z"
     aria-label="H"
     font-weight="400"
     font-size="21.333px"
     font-family="sans-serif"
     letter-spacing="0"
     word-spacing="0"
     fill="#000000"
     id="path1994"
     style="stroke-width:0.771637" />
  <path
     d="m 207.0898,248.0726 a 10.839192,10.839192 0 0 1 -10.81296,10.8392 10.839192,10.839192 0 0 1 -10.86619,-10.78596 10.839192,10.839192 0 0 1 10.75893,-10.89243 10.839192,10.839192 0 0 1 10.91867,10.73271"
     fill="#ffffff"
     stroke="#000000"
     stroke-width="1.23"
     id="path1996" />
  <path
     d="m 198.51537,250.12671 q 0,1.57489 -0.96455,2.42755 -0.95684,0.85189 -2.57186,0.85189 -0.38584,0 -1.02939,-0.0725 -0.64278,-0.0639 -1.07642,-0.1605 v -1.48693 h 0.088 q 0.32948,0.11189 0.81174,0.23304 0.48231,0.12037 0.98926,0.12037 0.73924,0 1.17288,-0.169 0.44216,-0.169 0.65127,-0.48228 0.21682,-0.32099 0.27316,-0.78706 0.0648,-0.46684 0.0648,-1.0772 v -6.98564 h -2.53251 v -1.26935 h 4.12364 z"
     aria-label="J"
     font-weight="400"
     font-size="21.333px"
     font-family="sans-serif"
     letter-spacing="0"
     word-spacing="0"
     fill="#000000"
     id="path1998"
     style="stroke-width:0.771637" />
  <path
     d="m 231.85396,248.0726 a 10.839192,10.839192 0 0 1 -10.81218,10.8392 10.839192,10.839192 0 0 1 -10.86619,-10.78596 10.839192,10.839192 0 0 1 10.75893,-10.89243 10.839192,10.839192 0 0 1 10.91867,10.73271"
     fill="#ffffff"
     stroke="#000000"
     stroke-width="1.23"
     id="path2000" />
  <path
     d="m 226.0852,253.41389 h -2.06567 l -4.73478,-5.32893 -1.18908,1.27011 v 4.05882 h -1.59189 v -11.96812 h 1.59189 v 6.24487 l 5.81119,-6.24487 h 1.9291 l -5.34514,5.62603 z"
     aria-label="K"
     font-weight="400"
     font-size="21.333px"
     font-family="sans-serif"
     letter-spacing="0"
     word-spacing="0"
     fill="#000000"
     id="path2002"
     style="stroke-width:0.771637" />
  <path
     d="m 256.61889,248.0726 a 10.839192,10.839192 0 0 1 -10.81219,10.8392 10.839192,10.839192 0 0 1 -10.8662,-10.78596 10.839192,10.839192 0 0 1 10.75895,-10.89243 10.839192,10.839192 0 0 1 10.91867,10.73271"
     fill="#ffffff"
     stroke="#000000"
     stroke-width="1.23"
     id="path2004" />
  <path
     d="m 250.25751,253.23717 h -7.57208 v -11.9681 h 1.5919 v 10.55368 h 5.98018 z"
     aria-label="L"
     font-weight="400"
     font-size="21.333px"
     font-family="sans-serif"
     letter-spacing="0"
     word-spacing="0"
     fill="#000000"
     id="path2006"
     style="stroke-width:0.771637" />
  <path
     d="m 68.719761,270.70936 a 10.839192,10.839192 0 0 1 -10.812954,10.8392 10.839192,10.839192 0 0 1 -10.8662,-10.78596 10.839192,10.839192 0 0 1 10.759712,-10.89243 10.839192,10.839192 0 0 1 10.91867,10.73193"
     fill="#ffffff"
     stroke="#000000"
     stroke-width="1.23"
     id="path2008" />
  <path
     d="m 62.151583,275.87315 h -9.3399 v -1.47844 l 7.338273,-9.07447 h -7.065113 v -1.41518 h 8.890807 v 1.43911 l -7.410807,9.11458 h 7.587511 z"
     aria-label="Z"
     font-weight="400"
     font-size="21.333px"
     font-family="sans-serif"
     letter-spacing="0"
     word-spacing="0"
     fill="#000000"
     id="path2010"
     style="stroke-width:0.771637" />
  <path
     d="M 93.970049,270.70936 A 10.839192,10.839192 0 0 1 83.157098,281.54856 10.839192,10.839192 0 0 1 72.291672,270.7626 10.839192,10.839192 0 0 1 83.050613,259.87017 10.839192,10.839192 0 0 1 93.96928,270.6021"
     fill="#ffffff"
     stroke="#000000"
     stroke-width="1.23"
     id="path2012" />
  <path
     d="m 88.195891,263.90506 -4.131347,5.91614 4.123631,6.05272 h -1.840354 l -3.264027,-4.92765 -3.343506,4.92765 h -1.736185 l 4.172245,-5.98019 -4.075788,-5.9879 h 1.832638 l 3.22313,4.8621 3.295664,-4.86287 z"
     aria-label="X"
     font-weight="400"
     font-size="21.333px"
     font-family="sans-serif"
     letter-spacing="0"
     word-spacing="0"
     fill="#000000"
     id="path2014"
     style="stroke-width:0.771637" />
  <path
     d="m 118.735,270.70936 a 10.839192,10.839192 0 0 1 -10.81296,10.8392 10.839192,10.839192 0 0 1 -10.865441,-10.78596 10.839192,10.839192 0 0 1 10.758951,-10.89243 10.839192,10.839192 0 0 1 10.91868,10.73193"
     fill="#ffffff"
     stroke="#000000"
     stroke-width="1.23"
     id="path2016" />
  <path
     d="m 112.10278,275.00584 q -0.44216,0.1929 -0.80406,0.36113 -0.35342,0.16897 -0.93215,0.35418 -0.49075,0.15277 -1.06947,0.25695 -0.57103,0.11267 -1.26163,0.11267 -1.30174,0 -2.37124,-0.36191 -1.06101,-0.37038 -1.84886,-1.14974 -0.77162,-0.76393 -1.20529,-1.93681 -0.43442,-1.18137 -0.43442,-2.74086 0,-1.47923 0.41821,-2.6444 0.41823,-1.16516 1.20532,-1.96923 0.76391,-0.77933 1.8411,-1.18985 1.08492,-0.40974 2.4029,-0.40974 0.96453,0 1.92138,0.23303 0.96453,0.23304 2.13744,0.81948 v 1.88898 h -0.11962 q -0.98924,-0.82797 -1.96151,-1.2053 -0.97225,-0.37811 -2.08188,-0.37811 -0.90821,0 -1.63972,0.29786 -0.72302,0.28935 -1.29404,0.90821 -0.55481,0.60265 -0.86809,1.52707 -0.30556,0.91594 -0.30556,2.122 0,1.26163 0.33796,2.16985 0.3457,0.90898 0.88353,1.47923 0.5633,0.59415 1.31025,0.88429 0.7562,0.28165 1.59187,0.28165 1.14975,0 2.15442,-0.39352 1.00469,-0.39432 1.88048,-1.18217 h 0.11268 z"
     aria-label="C"
     font-weight="400"
     font-size="21.333px"
     font-family="sans-serif"
     letter-spacing="0"
     word-spacing="0"
     fill="#000000"
     id="path2018"
     style="stroke-width:0.771637" />
  <path
     d="m 143.49992,270.70936 a 10.839192,10.839192 0 0 1 -10.81295,10.8392 10.839192,10.839192 0 0 1 -10.86543,-10.78596 10.839192,10.839192 0 0 1 10.75894,-10.89243 10.839192,10.839192 0 0 1 10.91868,10.73193"
     fill="#ffffff"
     stroke="#000000"
     stroke-width="1.23"
     id="path2020" />
  <path
     d="m 138.03133,263.90506 -4.3559,11.96809 h -2.12201 l -4.35665,-11.96809 h 1.70377 l 3.75401,10.52976 3.75325,-10.52976 z"
     aria-label="V"
     font-weight="400"
     font-size="21.333px"
     font-family="sans-serif"
     letter-spacing="0"
     word-spacing="0"
     fill="#000000"
     id="path2022"
     style="stroke-width:0.771637" />
  <path
     d="m 168.75021,270.70936 a 10.839192,10.839192 0 0 1 -10.81217,10.8392 10.839192,10.839192 0 0 1 -10.8662,-10.78596 10.839192,10.839192 0 0 1 10.75894,-10.89243 10.839192,10.839192 0 0 1 10.91866,10.73193"
     fill="#ffffff"
     stroke="#000000"
     stroke-width="1.23"
     id="path2024" />
  <path
     d="m 162.95831,272.19244 q 0,0.89201 -0.33799,1.57492 -0.3372,0.68367 -0.9082,1.12582 -0.67519,0.53011 -1.48696,0.75544 -0.80328,0.2253 -2.04946,0.2253 h -4.244 v -11.96809 h 3.5449 q 1.31023,0 1.96072,0.0957 0.65127,0.0965 1.24618,0.40126 0.65899,0.34647 0.95684,0.89278 0.29711,0.53862 0.29711,1.29404 0,0.85189 -0.43367,1.45531 -0.43444,0.59416 -1.15747,0.95683 v 0.0639 q 1.21301,0.24849 1.91288,1.06872 0.69912,0.81177 0.69912,2.05797 z m -2.67681,-5.39373 q 0,-0.43367 -0.14429,-0.73152 -0.14508,-0.29706 -0.46608,-0.48227 -0.3781,-0.21684 -0.91671,-0.26545 -0.53859,-0.0555 -1.33492,-0.0555 h -1.89669 v 3.45615 h 2.05794 q 0.74773,0 1.18988,-0.0724 0.44214,-0.0801 0.81948,-0.32177 0.37811,-0.24076 0.53089,-0.61886 0.1605,-0.38582 0.1605,-0.90821 z m 1.02088,5.45779 q 0,-0.72303 -0.21683,-1.14974 -0.21684,-0.42594 -0.78785,-0.72304 -0.38582,-0.20061 -0.94063,-0.25694 -0.54632,-0.0649 -1.33417,-0.0649 h -2.50009 v 4.45313 h 2.10657 q 1.0448,0 1.71148,-0.10417 0.66748,-0.11266 1.09342,-0.40203 0.44986,-0.31327 0.65897,-0.71531 0.20913,-0.40203 0.20913,-1.03708 z"
     aria-label="B"
     font-weight="400"
     font-size="21.333px"
     font-family="sans-serif"
     letter-spacing="0"
     word-spacing="0"
     fill="#000000"
     id="path2026"
     style="stroke-width:0.771637" />
  <path
     d="m 194.00129,270.70936 a 10.839192,10.839192 0 0 1 -10.81297,10.8392 10.839192,10.839192 0 0 1 -10.8662,-10.78596 10.839192,10.839192 0 0 1 10.75972,-10.89243 10.839192,10.839192 0 0 1 10.91867,10.73193"
     fill="#ffffff"
     stroke="#000000"
     stroke-width="1.23"
     id="path2028" />
  <path
     d="m 187.58742,275.97346 h -1.96921 L 179.9436,265.267 v 10.70646 h -1.48696 v -11.96808 h 2.4677 l 5.17614,9.77356 v -9.77433 h 1.48694 z"
     aria-label="N"
     font-weight="400"
     font-size="21.333px"
     font-family="sans-serif"
     letter-spacing="0"
     word-spacing="0"
     fill="#000000"
     id="path2030"
     style="stroke-width:0.771637" />
  <path
     d="m 219.25158,270.70936 a 10.839192,10.839192 0 0 1 -10.81297,10.8392 10.839192,10.839192 0 0 1 -10.86541,-10.78596 10.839192,10.839192 0 0 1 10.75893,-10.89243 10.839192,10.839192 0 0 1 10.91867,10.73193"
     fill="#ffffff"
     stroke="#000000"
     stroke-width="1.23"
     id="path2032" />
  <path
     d="m 214.03454,275.87392 h -1.59189 v -10.31293 l -3.32808,7.01728 h -0.94833 l -3.30338,-7.01728 v 10.31293 h -1.48696 v -11.96809 h 2.16986 l 3.19147,6.66308 3.08656,-6.66385 h 2.20999 z"
     aria-label="M"
     font-weight="400"
     font-size="21.333px"
     font-family="sans-serif"
     letter-spacing="0"
     word-spacing="0"
     fill="#000000"
     id="path2034"
     style="stroke-width:0.771637" />
  <g
     aria-label="Backspace"
     id="text2976"
     style="fill:#000000"
     transform="translate(0,22)">
    <path
       d="m 259.1284,153.94055 q 0,0.65039 -0.24609,1.14844 -0.24609,0.49805 -0.66211,0.82031 -0.49219,0.38672 -1.08398,0.55078 -0.58594,0.16407 -1.49415,0.16407 h -3.09375 v -8.72461 h 2.58399 q 0.95508,0 1.42969,0.0703 0.47461,0.0703 0.9082,0.29297 0.48047,0.25195 0.69727,0.65039 0.21679,0.39258 0.21679,0.94336 0,0.62109 -0.3164,1.06054 -0.31641,0.4336 -0.84375,0.69727 v 0.0469 q 0.88476,0.18165 1.39453,0.7793 0.50976,0.5918 0.50976,1.5 z m -1.95117,-3.93164 q 0,-0.31641 -0.10547,-0.5332 -0.10547,-0.2168 -0.33984,-0.35156 -0.27539,-0.15821 -0.66797,-0.19336 -0.39258,-0.041 -0.97266,-0.041 h -1.38281 v 2.51953 h 1.5 q 0.54492,0 0.86719,-0.0527 0.32226,-0.0586 0.59765,-0.23438 0.2754,-0.17578 0.38672,-0.45117 0.11719,-0.28125 0.11719,-0.66211 z m 0.74414,3.97852 q 0,-0.52735 -0.1582,-0.83789 -0.1582,-0.31055 -0.57422,-0.52735 -0.28125,-0.14648 -0.68555,-0.1875 -0.39843,-0.0469 -0.97265,-0.0469 h -1.82227 v 3.24609 h 1.53516 q 0.76172,0 1.24804,-0.0762 0.48633,-0.082 0.79688,-0.29297 0.32812,-0.22852 0.48047,-0.52148 0.15234,-0.29297 0.15234,-0.75586 z"
       id="path3871" />
    <path
       d="m 265.77293,156.62415 h -1.0957 v -0.69727 q -0.14648,0.0996 -0.39844,0.28125 -0.24609,0.17578 -0.48047,0.28125 -0.27539,0.13477 -0.63281,0.22266 -0.35742,0.0937 -0.83789,0.0937 -0.88476,0 -1.5,-0.58594 -0.61523,-0.58594 -0.61523,-1.49414 0,-0.74414 0.3164,-1.20117 0.32227,-0.46289 0.91407,-0.72657 0.59765,-0.26367 1.43554,-0.35742 0.83789,-0.0937 1.79883,-0.14062 V 152.13 q 0,-0.375 -0.13476,-0.62109 -0.12891,-0.24609 -0.375,-0.38672 -0.23438,-0.13476 -0.5625,-0.18164 -0.32813,-0.0469 -0.68555,-0.0469 -0.4336,0 -0.9668,0.11718 -0.5332,0.11133 -1.10156,0.32813 h -0.0586 v -1.11914 q 0.32226,-0.0879 0.93164,-0.19336 0.60937,-0.10547 1.20117,-0.10547 0.6914,0 1.20117,0.11719 0.51562,0.11133 0.89062,0.38672 0.36915,0.26953 0.5625,0.69726 0.19336,0.42774 0.19336,1.06055 z m -1.0957,-1.61133 v -1.82227 q -0.50391,0.0293 -1.18945,0.0879 -0.67969,0.0586 -1.07813,0.16992 -0.47461,0.13477 -0.76758,0.42188 -0.29296,0.28125 -0.29296,0.7793 0,0.5625 0.33984,0.84961 0.33984,0.28125 1.03711,0.28125 0.58008,0 1.06055,-0.22266 0.48046,-0.22852 0.89062,-0.54492 z"
       id="path3873" />
    <path
       d="m 272.73387,156.21399 q -0.55078,0.26367 -1.04883,0.41016 -0.49218,0.14648 -1.04882,0.14648 -0.70899,0 -1.30079,-0.20508 -0.59179,-0.21094 -1.01367,-0.63281 -0.42773,-0.42188 -0.66211,-1.06641 -0.23437,-0.64453 -0.23437,-1.50586 0,-1.60547 0.8789,-2.51953 0.88477,-0.91406 2.33204,-0.91406 0.5625,0 1.10156,0.1582 0.54492,0.15821 0.99609,0.38672 v 1.22461 h -0.0586 q -0.50391,-0.39258 -1.04297,-0.60351 -0.5332,-0.21094 -1.04297,-0.21094 -0.9375,0 -1.48242,0.63281 -0.53906,0.62695 -0.53906,1.8457 0,1.1836 0.52734,1.82227 0.5332,0.63281 1.49414,0.63281 0.33398,0 0.67969,-0.0879 0.3457,-0.0879 0.62109,-0.22851 0.24024,-0.12305 0.45117,-0.25782 0.21094,-0.14062 0.33399,-0.24023 h 0.0586 z"
       id="path3875" />
    <path
       d="m 280.08739,156.62415 h -1.45313 l -2.625,-2.86524 -0.71484,0.67969 v 2.18555 h -1.10156 v -9.11719 h 1.10156 v 5.84765 l 3.18164,-3.27539 h 1.38867 l -3.04101,3.02344 z"
       id="path3877" />
    <path
       d="m 285.92332,154.73743 q 0,0.89648 -0.74414,1.4707 -0.73828,0.57422 -2.02148,0.57422 -0.72656,0 -1.33594,-0.16992 -0.60351,-0.17578 -1.01367,-0.38086 v -1.23633 h 0.0586 q 0.52149,0.39258 1.16016,0.62695 0.63867,0.22852 1.22461,0.22852 0.72656,0 1.13672,-0.23438 0.41015,-0.23437 0.41015,-0.73828 0,-0.38672 -0.22265,-0.58594 -0.22266,-0.19921 -0.85547,-0.33984 -0.23438,-0.0527 -0.61523,-0.12305 -0.375,-0.0703 -0.68555,-0.15234 -0.86133,-0.22852 -1.22461,-0.66797 -0.35742,-0.44531 -0.35742,-1.08984 0,-0.4043 0.16406,-0.76172 0.16992,-0.35742 0.50977,-0.63867 0.32812,-0.27539 0.83203,-0.4336 0.50976,-0.16406 1.13672,-0.16406 0.58593,0 1.18359,0.14648 0.60351,0.14063 1.00195,0.34571 v 1.17773 h -0.0586 q -0.42188,-0.31054 -1.02539,-0.52148 -0.60352,-0.2168 -1.1836,-0.2168 -0.60351,0 -1.01953,0.23438 -0.41601,0.22851 -0.41601,0.68554 0,0.4043 0.25195,0.60938 0.24609,0.20508 0.79688,0.33398 0.30468,0.0703 0.67968,0.14063 0.38086,0.0703 0.63282,0.1289 0.76757,0.17578 1.18359,0.60352 0.41601,0.43359 0.41601,1.14844 z"
       id="path3879" />
    <path
       d="m 293.25926,153.27258 q 0,0.79688 -0.22851,1.45899 -0.22852,0.65625 -0.64453,1.11328 -0.38672,0.43359 -0.91407,0.67383 -0.52148,0.23437 -1.10742,0.23437 -0.50976,0 -0.92578,-0.11133 -0.41016,-0.11132 -0.83789,-0.3457 v 2.74219 h -1.10156 v -8.95899 h 1.10156 v 0.68555 q 0.43945,-0.36914 0.98437,-0.61523 0.55079,-0.25196 1.17188,-0.25196 1.18359,0 1.83984,0.89649 0.66211,0.89062 0.66211,2.47851 z m -1.13672,0.0293 q 0,-1.18359 -0.40429,-1.76953 -0.4043,-0.58594 -1.24219,-0.58594 -0.47461,0 -0.95508,0.20508 -0.48047,0.20508 -0.91992,0.53906 v 3.70899 q 0.46875,0.21093 0.80273,0.28711 0.33985,0.0762 0.76758,0.0762 0.91992,0 1.43555,-0.6211 0.51562,-0.62109 0.51562,-1.83984 z"
       id="path3881" />
    <path
       d="m 300.062,156.62415 h -1.09571 v -0.69727 q -0.14648,0.0996 -0.39843,0.28125 -0.2461,0.17578 -0.48047,0.28125 -0.27539,0.13477 -0.63282,0.22266 -0.35742,0.0937 -0.83789,0.0937 -0.88476,0 -1.5,-0.58594 -0.61523,-0.58594 -0.61523,-1.49414 0,-0.74414 0.31641,-1.20117 0.32226,-0.46289 0.91406,-0.72657 0.59765,-0.26367 1.43555,-0.35742 0.83789,-0.0937 1.79882,-0.14062 V 152.13 q 0,-0.375 -0.13476,-0.62109 -0.12891,-0.24609 -0.375,-0.38672 -0.23438,-0.13476 -0.5625,-0.18164 -0.32813,-0.0469 -0.68555,-0.0469 -0.43359,0 -0.9668,0.11718 -0.5332,0.11133 -1.10156,0.32813 h -0.0586 v -1.11914 q 0.32226,-0.0879 0.93164,-0.19336 0.60937,-0.10547 1.20117,-0.10547 0.69141,0 1.20117,0.11719 0.51563,0.11133 0.89063,0.38672 0.36914,0.26953 0.5625,0.69726 0.19336,0.42774 0.19336,1.06055 z m -1.09571,-1.61133 v -1.82227 q -0.5039,0.0293 -1.18945,0.0879 -0.67969,0.0586 -1.07812,0.16992 -0.47461,0.13477 -0.76758,0.42188 -0.29297,0.28125 -0.29297,0.7793 0,0.5625 0.33984,0.84961 0.33985,0.28125 1.03711,0.28125 0.58008,0 1.06055,-0.22266 0.48047,-0.22852 0.89062,-0.54492 z"
       id="path3883" />
    <path
       d="m 307.02293,156.21399 q -0.55078,0.26367 -1.04882,0.41016 -0.49219,0.14648 -1.04883,0.14648 -0.70899,0 -1.30078,-0.20508 -0.5918,-0.21094 -1.01368,-0.63281 -0.42773,-0.42188 -0.6621,-1.06641 -0.23438,-0.64453 -0.23438,-1.50586 0,-1.60547 0.87891,-2.51953 0.88476,-0.91406 2.33203,-0.91406 0.5625,0 1.10156,0.1582 0.54492,0.15821 0.99609,0.38672 v 1.22461 h -0.0586 q -0.50391,-0.39258 -1.04297,-0.60351 -0.5332,-0.21094 -1.04297,-0.21094 -0.9375,0 -1.48242,0.63281 -0.53906,0.62695 -0.53906,1.8457 0,1.1836 0.52734,1.82227 0.53321,0.63281 1.49414,0.63281 0.33399,0 0.67969,-0.0879 0.3457,-0.0879 0.62109,-0.22851 0.24024,-0.12305 0.45118,-0.25782 0.21093,-0.14062 0.33398,-0.24023 h 0.0586 z"
       id="path3885" />
    <path
       d="m 313.91356,153.46594 h -4.82227 q 0,0.60352 0.18164,1.05469 0.18164,0.44531 0.49805,0.73242 0.30469,0.28125 0.7207,0.42188 0.42188,0.14062 0.92579,0.14062 0.66796,0 1.34179,-0.26367 0.67969,-0.26953 0.9668,-0.52734 h 0.0586 v 1.20117 q -0.55664,0.23437 -1.13672,0.39258 -0.58007,0.1582 -1.21875,0.1582 -1.6289,0 -2.54296,-0.87891 -0.91407,-0.88476 -0.91407,-2.50781 0,-1.60547 0.87305,-2.54883 0.87891,-0.94336 2.30859,-0.94336 1.32422,0 2.03907,0.77344 0.7207,0.77344 0.7207,2.19727 z m -1.07227,-0.84375 q -0.006,-0.86719 -0.43945,-1.34179 -0.42773,-0.47461 -1.30664,-0.47461 -0.88477,0 -1.41211,0.52148 -0.52148,0.52148 -0.5918,1.29492 z"
       id="path3887" />
  </g>
  <g
     aria-label="1"
     id="text3112"
     style="fill:#000000"
     transform="translate(0,22)">
    <path
       d="m 35.342941,181.72644 h -4.722656 v -0.89062 h 1.816406 v -5.84766 h -1.816406 v -0.79688 q 0.369141,0 0.791016,-0.0586 0.421875,-0.0644 0.638672,-0.18164 0.269531,-0.14648 0.421875,-0.36914 0.158203,-0.22852 0.18164,-0.60938 h 0.908203 v 7.86329 h 1.78125 z"
       id="path3868" />
  </g>
  <g
     aria-label="2"
     id="text3116"
     style="fill:#000000"
     transform="translate(0,22)">
    <path
       d="m 61.296829,181.72644 h -5.90625 v -1.22461 q 0.615235,-0.52734 1.230469,-1.05469 0.621094,-0.52734 1.154297,-1.04882 1.125,-1.08985 1.541015,-1.72852 0.416016,-0.64453 0.416016,-1.38867 0,-0.67969 -0.451172,-1.06055 -0.445312,-0.38672 -1.248047,-0.38672 -0.533203,0 -1.154297,0.1875 -0.621093,0.1875 -1.21289,0.57422 h -0.05859 v -1.23047 q 0.416016,-0.20508 1.107422,-0.375 0.697266,-0.16992 1.347656,-0.16992 1.341797,0 2.103516,0.65039 0.761719,0.64453 0.761719,1.75195 0,0.49805 -0.128907,0.93164 -0.123047,0.42774 -0.36914,0.81446 -0.228516,0.36328 -0.539063,0.71484 -0.304687,0.35156 -0.74414,0.7793 -0.626954,0.61523 -1.294922,1.19531 -0.667969,0.57422 -1.248047,1.06641 h 4.693359 z"
       id="path3865" />
  </g>
  <g
     aria-label="3"
     id="text3120"
     style="fill:#000000"
     transform="translate(0,22)">
    <path
       d="m 85.631546,177.52527 q 0.28125,0.25195 0.462891,0.63281 0.18164,0.38086 0.18164,0.98438 0,0.59765 -0.216797,1.0957 -0.216796,0.49805 -0.609375,0.86719 -0.439453,0.41015 -1.037109,0.60937 -0.591797,0.19336 -1.300781,0.19336 -0.726563,0 -1.429688,-0.17578 -0.703125,-0.16992 -1.154297,-0.375 v -1.22461 h 0.08789 q 0.498047,0.32813 1.171875,0.54492 0.673828,0.2168 1.300781,0.2168 0.369141,0 0.785157,-0.12305 0.416015,-0.12304 0.673828,-0.36328 0.269531,-0.25781 0.398437,-0.56836 0.134766,-0.31055 0.134766,-0.78515 0,-0.46875 -0.152344,-0.77344 -0.146484,-0.31055 -0.410156,-0.48633 -0.263672,-0.18164 -0.638672,-0.24609 -0.375,-0.0703 -0.808594,-0.0703 h -0.527344 v -0.97265 h 0.410157 q 0.890625,0 1.417968,-0.36914 0.533204,-0.375 0.533204,-1.08985 0,-0.3164 -0.134766,-0.55078 -0.134766,-0.24023 -0.375,-0.39258 -0.251953,-0.15234 -0.539063,-0.21093 -0.287109,-0.0586 -0.65039,-0.0586 -0.556641,0 -1.183594,0.19922 -0.626953,0.19922 -1.183594,0.5625 h -0.05859 v -1.22461 q 0.416015,-0.20508 1.107421,-0.375 0.697266,-0.17578 1.347657,-0.17578 0.638672,0 1.125,0.11719 0.486328,0.11719 0.878906,0.375 0.421875,0.28125 0.638672,0.67969 0.216797,0.39843 0.216797,0.93164 0,0.72656 -0.515625,1.27148 -0.509766,0.53906 -1.207032,0.67969 v 0.082 q 0.28125,0.0469 0.644532,0.19922 0.363281,0.14648 0.615234,0.36914 z"
       id="path3862" />
  </g>
  <g
     aria-label="4"
     id="text3124"
     style="fill:#000000"
     transform="translate(0,22)">
    <path
       d="m 111.34707,178.91782 h -1.29492 v 2.45507 h -1.125 v -2.45507 h -4.17774 v -1.34766 l 4.22461,-4.92188 h 1.07813 v 5.33204 h 1.29492 z m -2.41992,-0.9375 v -3.9375 l -3.38086,3.9375 z"
       id="path3859" />
  </g>
  <g
     aria-label="5"
     id="text3128"
     style="fill:#000000"
     transform="translate(0,22)">
    <path
       d="m 136.17984,178.60139 q 0,0.60938 -0.22266,1.16602 -0.22265,0.55664 -0.60937,0.9375 -0.42188,0.41016 -1.00781,0.63281 -0.58008,0.2168 -1.34766,0.2168 -0.71484,0 -1.37695,-0.15234 -0.66211,-0.14649 -1.11914,-0.35743 v -1.23632 h 0.082 q 0.48047,0.30468 1.125,0.52148 0.64453,0.21094 1.26562,0.21094 0.41602,0 0.80274,-0.11719 0.39258,-0.11719 0.69726,-0.41016 0.25782,-0.25195 0.38672,-0.60351 0.13477,-0.35156 0.13477,-0.81445 0,-0.45118 -0.15821,-0.76172 -0.15234,-0.31055 -0.42773,-0.49805 -0.30469,-0.22266 -0.74414,-0.31055 -0.43359,-0.0937 -0.97266,-0.0937 -0.51562,0 -0.99609,0.0703 -0.47461,0.0703 -0.82031,0.14062 v -4.49414 h 5.25 v 1.02539 h -4.11914 v 2.32031 q 0.25195,-0.0234 0.51562,-0.0351 0.26367,-0.0117 0.45703,-0.0117 0.70899,0 1.24219,0.12304 0.5332,0.11719 0.97852,0.42188 0.46875,0.32227 0.72656,0.83203 0.25781,0.50977 0.25781,1.27734 z"
       id="path3856" />
  </g>
  <g
     aria-label="6"
     id="text3132"
     style="fill:#000000"
     transform="translate(0,22)">
    <path
       d="m 161.48134,178.89638 q 0,1.33008 -0.87891,2.17383 -0.87304,0.83789 -2.14453,0.83789 -0.64453,0 -1.17187,-0.19922 -0.52735,-0.19922 -0.93164,-0.5918 -0.50391,-0.48633 -0.7793,-1.28906 -0.26953,-0.80274 -0.26953,-1.9336 0,-1.16015 0.24609,-2.05664 0.25195,-0.89648 0.79688,-1.59375 0.51562,-0.66211 1.33007,-1.03125 0.81446,-0.375 1.89844,-0.375 0.3457,0 0.58008,0.0293 0.23437,0.0293 0.47461,0.10547 v 1.11914 h -0.0586 q -0.16407,-0.0879 -0.49805,-0.16406 -0.32813,-0.082 -0.67383,-0.082 -1.25977,0 -2.00977,0.79101 -0.75,0.78516 -0.87304,2.12696 0.49219,-0.29883 0.96679,-0.45118 0.48047,-0.1582 1.10743,-0.1582 0.55664,0 0.97851,0.10547 0.42774,0.0996 0.87305,0.41016 0.51562,0.35742 0.77344,0.90234 0.26367,0.54492 0.26367,1.32422 z m -1.18945,0.0469 q 0,-0.54492 -0.16407,-0.90234 -0.1582,-0.35742 -0.52734,-0.62109 -0.26953,-0.1875 -0.59766,-0.2461 -0.32812,-0.0586 -0.68554,-0.0586 -0.49805,0 -0.92579,0.11719 -0.42773,0.11718 -0.8789,0.36328 -0.0117,0.1289 -0.0176,0.25195 -0.006,0.11719 -0.006,0.29883 0,0.92578 0.1875,1.46484 0.19336,0.5332 0.52734,0.84375 0.26954,0.25781 0.58008,0.38086 0.31641,0.11719 0.68555,0.11719 0.84961,0 1.33594,-0.51563 0.48633,-0.52148 0.48633,-1.49414 z"
       id="path3853" />
  </g>
  <g
     aria-label="7"
     id="text3136"
     style="fill:#000000"
     transform="translate(0,22)">
    <path
       d="m 186.83173,173.95491 -3.94922,7.41797 h -1.25391 l 4.20117,-7.69922 h -4.96875 v -1.02539 h 5.97071 z"
       id="path3850" />
  </g>
  <g
     aria-label="8"
     id="text3140"
     style="fill:#000000"
     transform="translate(0,22)">
    <path
       d="m 211.62148,178.94125 q 0,1.13086 -0.88477,1.88086 -0.87891,0.75 -2.21484,0.75 -1.41797,0 -2.26172,-0.73242 -0.83789,-0.73242 -0.83789,-1.875 0,-0.72656 0.42187,-1.3125 0.42188,-0.5918 1.18945,-0.9375 v -0.0352 q -0.70312,-0.375 -1.04296,-0.82031 -0.33399,-0.44531 -0.33399,-1.11328 0,-0.98437 0.8086,-1.64062 0.80859,-0.65625 2.05664,-0.65625 1.30664,0 2.08593,0.62695 0.7793,0.62695 0.7793,1.59375 0,0.5918 -0.36914,1.16601 -0.36914,0.56836 -1.08398,0.89063 v 0.0352 q 0.82031,0.35156 1.2539,0.86718 0.4336,0.51563 0.4336,1.3125 z m -1.38868,-4.25976 q 0,-0.62696 -0.48632,-0.9961 -0.48047,-0.375 -1.23047,-0.375 -0.73828,0 -1.21289,0.35157 -0.46875,0.35156 -0.46875,0.94922 0,0.42187 0.23437,0.73242 0.24024,0.30468 0.7207,0.54492 0.2168,0.10547 0.6211,0.27539 0.41015,0.16992 0.79687,0.28125 0.58008,-0.38672 0.80274,-0.80273 0.22265,-0.41602 0.22265,-0.96094 z m 0.18164,4.37109 q 0,-0.53906 -0.24023,-0.86133 -0.23438,-0.32812 -0.92578,-0.65625 -0.27539,-0.1289 -0.60352,-0.24023 -0.32812,-0.11133 -0.87304,-0.31055 -0.52735,0.28711 -0.84961,0.7793 -0.31641,0.49219 -0.31641,1.11328 0,0.79102 0.54492,1.30664 0.54492,0.51563 1.38281,0.51563 0.85547,0 1.36524,-0.43946 0.51562,-0.43945 0.51562,-1.20703 z"
       id="path3847" />
  </g>
  <path
     d="m 143.2653,174.7352 a 10.839192,10.839192 0 0 1 -10.81297,10.8392 10.839192,10.839192 0 0 1 -10.86542,-10.78596 10.839192,10.839192 0 0 1 10.75895,-10.89244 10.839192,10.839192 0 0 1 10.91867,10.73271"
     fill="#ffffff"
     stroke="#000000"
     stroke-width="1.23"
     id="path1948-9-7" />
  <path
     d="m 168.51559,174.7352 a 10.839192,10.839192 0 0 1 -10.81219,10.8392 10.839192,10.839192 0 0 1 -10.86619,-10.78596 10.839192,10.839192 0 0 1 10.75894,-10.89244 10.839192,10.839192 0 0 1 10.91867,10.73271"
     fill="#ffffff"
     stroke="#000000"
     stroke-width="1.23"
     id="path1952-8-7" />
  <path
     d="m 193.76666,174.7352 a 10.839192,10.839192 0 0 1 -10.81295,10.8392 10.839192,10.839192 0 0 1 -10.8662,-10.78596 10.839192,10.839192 0 0 1 10.75971,-10.89244 10.839192,10.839192 0 0 1 10.91866,10.73271"
     fill="#ffffff"
     stroke="#000000"
     stroke-width="1.23"
     id="path1956-4-4" />
  <path
     d="m 218.53159,174.7352 a 10.839192,10.839192 0 0 1 -10.81296,10.8392 10.839192,10.839192 0 0 1 -10.8662,-10.78596 10.839192,10.839192 0 0 1 10.75971,-10.89244 10.839192,10.839192 0 0 1 10.91868,10.73271"
     fill="#ffffff"
     stroke="#000000"
     stroke-width="1.23"
     id="path1960-9-7" />
  <g
     aria-label="&lt;"
     id="text3128-9"
     style="fill:#000000"
     transform="translate(0,22)">
    <path
       d="m 135.5178,156.46869 -6.76172,-3.00586 v -0.72656 l 6.76172,-3.00586 v 1.05469 l -5.33203,2.31445 5.33203,2.31445 z"
       id="path3844" />
  </g>
  <g
     aria-label="`"
     id="text3128-9-3"
     style="fill:#000000"
     transform="translate(0,22)">
    <path
       d="M 33.407806,148.67055 H 32.53476 l -1.59961,-2.19141 h 1.423828 z"
       id="path3841" />
  </g>
  <g
     aria-label="Fn"
     id="text3128-9-5"
     style="fill:#000000"
     transform="translate(0,22)">
    <path
       d="m 83.416801,148.60608 h -4.412109 v 2.46094 h 3.791016 v 1.03125 h -3.791016 v 4.20117 h -1.160156 v -8.72461 h 5.572265 z"
       id="path3836" />
    <path
       d="m 90.125786,156.29944 h -1.101563 v -3.72656 q 0,-0.45118 -0.05273,-0.84375 -0.05273,-0.39844 -0.193359,-0.6211 -0.146485,-0.24609 -0.421875,-0.36328 -0.275391,-0.12305 -0.714844,-0.12305 -0.451172,0 -0.94336,0.22266 -0.492187,0.22266 -0.943359,0.56836 v 4.88672 H 84.65313 v -6.54492 h 1.101562 v 0.72656 q 0.515625,-0.42774 1.066406,-0.66797 0.550782,-0.24023 1.13086,-0.24023 1.060547,0 1.617187,0.63867 0.556641,0.63867 0.556641,1.83984 z"
       id="path3838" />
  </g>
  <g
     aria-label="v"
     id="text3132-3"
     style="fill:#000000"
     transform="translate(0,22)">
    <path
       d="m 160.88199,150.02141 -2.64844,6.54492 h -1.10742 l -2.63086,-6.54492 h 1.19531 l 2.02735,5.20898 2.00976,-5.20898 z"
       id="path3833" />
  </g>
  <g
     aria-label="^"
     id="text3136-5"
     style="fill:#000000"
     transform="translate(0,22)">
    <path
       d="m 187.26352,155.03337 h -1.16016 l -2.66601,-3.67383 -2.66016,3.68555 h -1.1543 l 3.45118,-4.72852 h 0.73828 z"
       id="path3830" />
  </g>
  <g
     aria-label="&gt;"
     id="text3140-9"
     style="fill:#000000"
     transform="translate(0,22)">
    <path
       d="m 211.96736,153.46284 -6.76172,3.00586 v -1.05468 l 5.33203,-2.31446 -5.33203,-2.31445 v -1.05469 l 6.76172,3.00586 z"
       id="path3827" />
  </g>
  <g
     aria-label="9"
     id="text3144"
     style="fill:#000000"
     transform="translate(0,22)">
    <path
       d="m 236.6476,176.48618 q 0,1.14257 -0.26367,2.07421 -0.25782,0.93164 -0.78516,1.58789 -0.5332,0.66797 -1.33594,1.03125 -0.80273,0.36329 -1.88672,0.36329 -0.30468,0 -0.57421,-0.0352 -0.26954,-0.0293 -0.48047,-0.0996 v -1.11914 h 0.0586 q 0.16992,0.0879 0.48047,0.16992 0.31055,0.0762 0.69141,0.0762 1.29492,0 2.02734,-0.77343 0.73828,-0.7793 0.85547,-2.14454 -0.54492,0.32813 -1.02539,0.46875 -0.48047,0.14063 -1.04883,0.14063 -0.53906,0 -0.97852,-0.10547 -0.43359,-0.10547 -0.87304,-0.41016 -0.51563,-0.35742 -0.7793,-0.9082 -0.25781,-0.55078 -0.25781,-1.31836 0,-1.33594 0.8789,-2.17383 0.87891,-0.83789 2.14453,-0.83789 0.63282,0 1.17188,0.19922 0.53906,0.19336 0.94336,0.58594 0.49805,0.48633 0.76758,1.25391 0.26953,0.76171 0.26953,1.97461 z m -1.1836,-0.25196 q 0,-0.9082 -0.1875,-1.45898 -0.1875,-0.55078 -0.51562,-0.85547 -0.27539,-0.26367 -0.5918,-0.375 -0.3164,-0.11719 -0.68554,-0.11719 -0.84375,0 -1.33594,0.52735 -0.48633,0.52734 -0.48633,1.48242 0,0.55664 0.1582,0.9082 0.15821,0.35156 0.53321,0.61523 0.26367,0.18165 0.58007,0.2461 0.31641,0.0586 0.70313,0.0586 0.45703,0 0.92578,-0.12304 0.46875,-0.12305 0.87891,-0.35743 0.006,-0.12304 0.0117,-0.24023 0.0117,-0.12305 0.0117,-0.31055 z"
       id="path3824" />
  </g>
  <g
     aria-label="0"
     id="text3148"
     style="fill:#000000"
     transform="translate(0,22)">
    <path
       d="m 261.39633,177.00766 q 0,2.34961 -0.73828,3.45117 -0.73242,1.0957 -2.2793,1.0957 -1.57031,0 -2.29687,-1.11328 -0.7207,-1.11328 -0.7207,-3.42187 0,-2.32617 0.73242,-3.4336 0.73242,-1.11328 2.28515,-1.11328 1.57032,0 2.29102,1.13086 0.72656,1.125 0.72656,3.4043 z m -1.54101,2.66016 q 0.20507,-0.47461 0.27539,-1.11329 0.0762,-0.64453 0.0762,-1.54687 0,-0.89063 -0.0762,-1.54688 -0.0703,-0.65625 -0.28125,-1.11328 -0.20508,-0.45117 -0.5625,-0.67968 -0.35157,-0.22852 -0.90821,-0.22852 -0.55078,0 -0.91406,0.22852 -0.35742,0.22851 -0.56836,0.6914 -0.19922,0.4336 -0.27539,1.13086 -0.0703,0.69727 -0.0703,1.5293 0,0.91406 0.0644,1.5293 0.0645,0.61523 0.27539,1.10156 0.19336,0.45703 0.54492,0.69726 0.35743,0.24024 0.94336,0.24024 0.55078,0 0.91407,-0.22852 0.36328,-0.22851 0.5625,-0.6914 z"
       id="path3821" />
  </g>
  <g
     aria-label="-"
     id="text3152"
     style="fill:#000000"
     transform="translate(0,22)">
    <path
       d="m 285.98126,178.08578 h -3.65625 v -1.06054 h 3.65625 z"
       id="path3818" />
  </g>
  <g
     aria-label="="
     id="text3156"
     style="fill:#000000"
     transform="translate(0,22)">
    <path
       d="m 312.08713,176.08374 h -6.94922 v -0.9375 h 6.94922 z m 0,2.46094 h -6.94922 v -0.9375 h 6.94922 z"
       id="path3815" />
  </g>
  <g
     aria-label="["
     id="text3160"
     style="fill:#000000"
     transform="translate(0,22)">
    <path
       d="m 285.87579,208.77206 h -3.04687 V 197.358 h 3.04687 v 0.83789 h -2.02734 v 9.73828 h 2.02734 z"
       id="path3812" />
  </g>
  <g
     aria-label="]"
     id="text3164"
     style="fill:#000000"
     transform="translate(0,22)">
    <path
       d="m 310.22604,208.77206 h -3.04687 v -0.83789 h 2.02734 v -9.73828 h -2.02734 V 197.358 h 3.04687 z"
       id="path3809" />
  </g>
  <g
     aria-label=";"
     id="text3168"
     style="fill:#000000"
     transform="translate(0,22)">
    <path
       d="m 272.48184,224.22758 h -1.40039 v -1.66992 h 1.40039 z m 0.42774,3.20508 -1.65235,3.83789 h -0.85547 l 1.01954,-3.83789 z"
       id="path3806" />
  </g>
  <g
     aria-label=","
     id="text3176"
     style="fill:#000000"
     transform="translate(0,22)">
    <path
       d="m 234.59306,251.12076 -1.65234,3.83789 h -0.85547 l 1.01953,-3.83789 z"
       id="path3803" />
  </g>
  <g
     aria-label="."
     id="text3180"
     style="fill:#000000"
     transform="translate(0,22)">
    <path
       d="m 259.91614,253.85133 h -1.40039 v -1.66992 h 1.40039 z"
       id="path3800" />
  </g>
  <g
     aria-label="/"
     id="text3184"
     style="fill:#000000"
     transform="translate(0,22)">
    <path
       d="m 285.76047,243.67349 -4.20117,10.89844 h -1.01368 l 4.1836,-10.89844 z"
       id="path3797" />
  </g>
  <g
     aria-label="'"
     id="text3188"
     style="fill:#000000"
     transform="translate(0,22)">
    <path
       d="m 297.12524,221.39963 -0.25195,3.39258 h -0.79687 l -0.25196,-3.39258 z"
       id="path3794" />
  </g>
</svg>
